<svg version="1.1" id="Layer_1" xmlns="http://www.w3.org/2000/svg" xmlns:xlink="http://www.w3.org/1999/xlink" x="0px" y="0px"
	 width="100%" viewBox="0 0 1024 656" enable-background="new 0 0 1024 656" xml:space="preserve">
<path fill="#000000" opacity="1.000000" stroke="none" 
	d="
M575.518616,507.009338 
	C567.903748,507.156494 560.737366,507.342590 553.574402,507.254211 
	C550.322876,507.214081 549.051575,508.447296 549.212585,511.668152 
	C549.436646,516.152710 548.029175,521.377747 549.885681,524.953857 
	C552.166382,529.346863 558.036865,526.390564 562.284363,527.059265 
	C566.205750,527.676636 570.256897,527.672974 574.244873,527.602539 
	C577.588196,527.543518 579.201904,528.710205 579.137085,532.190979 
	C579.031494,537.855652 579.058228,543.523865 579.112366,549.189758 
	C579.140747,552.159668 577.764160,553.307312 574.840393,553.317261 
	C558.349426,553.373352 541.858276,553.655029 525.368408,553.581970 
	C517.439697,553.546875 517.440918,553.270752 517.306702,561.205750 
	C517.162781,569.713196 513.106506,575.758118 505.595490,578.658875 
	C498.562805,581.375000 490.297882,579.478516 484.896820,574.016296 
	C480.960754,570.035645 481.362488,564.803040 480.945679,559.932739 
	C480.492249,554.634460 480.716034,549.274902 480.712494,543.942017 
	C480.696381,519.608948 480.683929,495.275787 480.731049,470.942780 
	C480.736450,468.152496 480.310425,466.068207 477.723480,464.154633 
	C470.747101,458.994293 470.866394,451.559540 477.849396,446.346954 
	C479.998016,444.743103 480.814453,443.020416 480.721985,440.472626 
	C480.595184,436.977264 480.486053,433.458588 480.745972,429.978027 
	C481.031006,426.160828 479.388245,424.805786 475.741974,424.153168 
	C456.874420,420.776062 438.959839,414.865936 423.147308,403.582031 
	C401.481781,388.121429 388.625214,367.446777 385.778656,340.809509 
	C385.001099,333.533447 385.511261,332.974762 392.616974,332.958954 
	C401.950165,332.938202 411.285950,333.082764 420.615479,332.898071 
	C424.514832,332.820892 426.358582,334.298279 426.972748,338.149109 
	C431.613922,367.250183 454.122375,379.948242 476.524261,386.255585 
	C479.158691,386.997345 480.313568,385.875854 480.543457,383.407501 
	C480.651367,382.248962 480.639038,381.077026 480.640045,379.911102 
	C480.660248,356.078033 480.600037,332.244476 480.768951,308.412476 
	C480.794769,304.774536 479.547852,302.620789 476.534088,300.734100 
	C459.867554,290.300720 443.291321,279.734161 427.806732,267.546356 
	C408.359039,252.239273 394.748260,232.943878 390.496185,208.462540 
	C382.835327,164.355316 398.196686,127.076469 438.507599,104.373688 
	C483.787354,78.872459 528.892090,83.022957 571.256470,112.229462 
	C593.606384,127.637726 605.942932,149.968613 609.141174,177.103470 
	C609.922058,183.728867 609.457825,184.282318 602.816589,184.298004 
	C594.316772,184.318069 585.804382,184.025574 577.321716,184.406845 
	C572.557495,184.620956 570.567810,183.144028 569.921814,178.321167 
	C566.803467,155.040009 553.214172,139.164703 533.024109,128.713486 
	C505.278870,114.351357 467.502899,120.472031 445.794250,142.268143 
	C419.900452,168.266296 421.033081,208.260437 448.430878,234.652924 
	C458.971497,244.806793 471.738403,251.823242 483.923950,259.642456 
	C500.049408,269.989807 516.365662,280.042816 532.399475,290.528809 
	C543.250427,297.625305 552.802917,306.349854 558.913574,317.931458 
	C568.736145,336.548340 566.164062,359.701385 549.075562,377.826385 
	C541.372314,385.996887 532.230713,391.911621 522.194763,396.564880 
	C518.692444,398.188751 517.069458,400.357361 517.287781,404.248962 
	C517.518738,408.365784 517.339661,412.505554 517.339661,416.959625 
	C524.808411,417.134888 531.302979,415.226227 537.641052,412.816772 
	C559.175842,404.630280 575.948120,391.169220 586.198364,369.974792 
	C597.419189,346.773499 595.029053,312.911102 574.054749,290.863892 
	C559.617798,275.688416 542.321411,264.515686 524.966370,253.305206 
	C509.435699,243.273193 493.285309,234.174301 478.580170,222.902130 
	C469.027100,215.579239 462.143921,206.193771 459.880310,194.218613 
	C455.853149,172.913742 470.747559,153.824509 492.501068,151.829010 
	C504.116058,150.763535 515.066528,152.605713 525.054077,158.987930 
	C532.904846,164.004700 537.703247,171.059875 539.765564,180.117172 
	C540.428589,183.028992 539.384033,184.181534 536.587646,184.257019 
	C531.427551,184.396301 526.900940,184.584717 523.135986,179.189178 
	C517.795227,171.535522 504.998901,168.422592 496.283112,171.881149 
	C484.003845,176.753754 480.859528,188.502396 486.699310,200.499084 
	C489.069763,205.368729 493.145691,208.937057 497.467346,212.149429 
	C512.997925,223.693695 529.536865,233.715088 545.749756,244.234238 
	C564.996887,256.722107 583.153442,270.550354 596.331116,289.746521 
	C628.962708,337.281677 608.218994,400.295624 553.807983,419.361938 
	C543.391357,423.012024 532.654419,425.295105 521.795898,427.023712 
	C519.048523,427.461060 517.283813,428.445404 517.412537,431.310272 
	C517.684692,437.365601 515.754395,443.578583 521.808044,448.746918 
	C526.276123,452.561554 524.931763,459.642151 520.423889,463.928467 
	C517.836914,466.388306 516.126221,475.117249 517.610107,478.201813 
	C518.669617,480.404205 520.723572,479.805267 522.441833,479.814758 
	C536.774597,479.894012 551.107971,479.854004 565.440735,479.934723 
	C579.315491,480.012848 579.318481,480.056946 579.325256,494.038025 
	C579.326538,496.704468 579.303711,499.371094 579.268066,502.037292 
	C579.236694,504.379303 578.603882,506.337860 575.518616,507.009338 
M534.780212,367.173859 
	C542.898376,352.006134 533.767517,333.323517 517.704712,325.836945 
	C517.704712,345.165283 517.704712,364.317230 517.704712,384.193420 
	C525.375549,380.324158 530.453979,374.651581 534.780212,367.173859 
z"/>
</svg>